<svg xmlns="http://www.w3.org/2000/svg" xmlns:xlink="http://www.w3.org/1999/xlink" width="500" zoomAndPan="magnify" viewBox="0 0 375 374.999991" height="500" preserveAspectRatio="xMidYMid meet" version="1.0"><defs><clipPath id="8c78954c9f"><path d="M 103 128 L 283 128 L 283 296.839844 L 103 296.839844 Z M 103 128 " clip-rule="nonzero"/></clipPath></defs><path fill="#4d7902" d="M 183.421875 150.363281 C 174.847656 150.363281 166.488281 147.300781 159.875 141.574219 C 151.671875 134.53125 147.078125 124.242188 147.199219 113.339844 C 147.199219 112.117188 148.089844 111.105469 149.3125 110.890625 C 171.511719 107.0625 191.808594 124.210938 191.65625 147.363281 C 191.65625 148.589844 190.769531 149.597656 189.542969 149.8125 C 187.492188 150.210938 185.472656 150.363281 183.421875 150.363281 Z M 183.421875 150.363281 " fill-opacity="1" fill-rule="evenodd"/><path fill="#4d7902" d="M 194.71875 119.160156 C 192.726562 119.160156 190.675781 119.007812 188.6875 118.667969 C 187.460938 118.457031 186.574219 117.414062 186.574219 116.1875 C 186.390625 105.316406 191.011719 95.027344 199.1875 87.953125 C 207.363281 80.851562 218.140625 77.847656 228.824219 79.625 C 230.050781 79.839844 230.9375 80.851562 230.9375 82.105469 C 231.121094 92.976562 226.46875 103.265625 218.324219 110.339844 C 211.679688 116.097656 203.320312 119.160156 194.71875 119.160156 Z M 194.71875 119.160156 " fill-opacity="1" fill-rule="evenodd"/><path fill="#73b504" d="M 189.085938 171.003906 C 187.675781 171.003906 186.511719 169.839844 186.511719 168.433594 L 186.511719 116.160156 C 186.511719 114.75 187.675781 113.585938 189.085938 113.585938 C 190.460938 113.585938 191.625 114.75 191.625 116.160156 L 191.625 168.433594 C 191.625 169.839844 190.523438 171.003906 189.085938 171.003906 Z M 189.085938 171.003906 " fill-opacity="1" fill-rule="evenodd"/><path fill="#73b504" d="M 189.085938 118.699219 C 186.757812 118.699219 185.625 115.761719 187.402344 114.199219 L 207.058594 97.203125 C 208.128906 96.253906 209.71875 96.375 210.667969 97.449219 C 211.589844 98.519531 211.464844 100.113281 210.425781 101.0625 L 190.769531 118.058594 C 190.246094 118.484375 189.667969 118.699219 189.085938 118.699219 Z M 189.085938 118.699219 " fill-opacity="1" fill-rule="evenodd"/><path fill="#73b504" d="M 189.085938 149.875 C 188.472656 149.875 187.890625 149.660156 187.402344 149.230469 L 167.746094 132.265625 C 166.671875 131.316406 166.550781 129.722656 167.46875 128.652344 C 168.417969 127.582031 170.039062 127.457031 171.082031 128.40625 L 190.769531 145.371094 C 192.574219 146.933594 191.441406 149.875 189.085938 149.875 Z M 189.085938 149.875 " fill-opacity="1" fill-rule="evenodd"/><g clip-path="url(#8c78954c9f)"><path fill="#008080" d="M 192.511719 296.832031 C 177.050781 296.832031 161.742188 292.761719 147.964844 284.800781 C 105.285156 260.148438 90.589844 205.363281 115.234375 162.675781 C 119.214844 155.722656 129.65625 157.164062 131.675781 164.816406 C 132.320312 167.175781 131.984375 169.59375 130.789062 171.648438 C 111.101562 205.761719 122.859375 249.519531 156.9375 269.242188 C 190.738281 288.75 234.644531 277.601562 254.542969 243.089844 C 269.792969 216.664062 266.269531 183.253906 246.675781 160.59375 L 249.09375 172.628906 C 250.074219 177.464844 246.921875 182.210938 242.082031 183.191406 C 237.246094 184.171875 232.46875 181.019531 231.488281 176.179688 L 224.050781 139.492188 C 222.917969 133.796875 227.386719 128.5625 233.140625 128.746094 L 270.527344 129.878906 C 278.457031 130.152344 282.253906 139.953125 276.375 145.402344 C 274.628906 147.058594 272.332031 147.914062 269.976562 147.824219 L 259.074219 147.484375 C 270.800781 160.5 278.546875 176.914062 281.089844 194.339844 C 284.089844 214.488281 280.292969 234.425781 270.097656 252.125 C 253.960938 280.050781 224.507812 296.832031 192.511719 296.832031 Z M 192.511719 296.832031 " fill-opacity="1" fill-rule="evenodd"/></g><path fill="#fc8c2e" d="M 189.574219 267.066406 C 161.710938 267.066406 139.027344 244.375 139.027344 216.480469 C 139.027344 188.613281 161.710938 165.921875 189.574219 165.921875 C 217.464844 165.921875 240.152344 188.613281 240.152344 216.480469 C 240.152344 244.375 217.40625 267.066406 189.574219 267.066406 Z M 189.574219 267.066406 " fill-opacity="1" fill-rule="evenodd"/><path fill="#f7cc3f" d="M 189.574219 173.117188 C 165.632812 173.117188 146.160156 192.59375 146.160156 216.539062 C 146.160156 240.488281 165.632812 259.964844 189.574219 259.964844 C 213.515625 259.964844 232.988281 240.488281 232.988281 216.539062 C 232.988281 192.59375 213.457031 173.117188 189.574219 173.117188 Z M 189.574219 173.117188 " fill-opacity="1" fill-rule="evenodd"/><path fill="#fc8c2e" d="M 188.929688 248.113281 C 180.050781 248.113281 173.195312 245.019531 169.519531 239.355469 C 168.449219 237.699219 168.90625 235.496094 170.53125 234.425781 C 172.183594 233.351562 174.386719 233.8125 175.460938 235.433594 C 178.613281 240.179688 185.226562 240.917969 188.929688 240.917969 C 194.71875 240.917969 199.402344 239.019531 201.484375 235.800781 C 202.554688 234.179688 203.105469 232.464844 203.105469 230.597656 C 203.105469 227.195312 201.363281 224.65625 197.871094 222.816406 C 193.617188 220.582031 183.207031 219.328125 177.910156 216.539062 C 175 215.007812 172.734375 212.988281 171.171875 210.597656 C 167.957031 205.453125 168.082031 198.6875 171.601562 193.328125 C 175.0625 188.03125 181.828125 184.90625 190.125 184.90625 C 199.003906 184.90625 205.832031 188.03125 209.535156 193.664062 C 210.609375 195.347656 210.117188 197.554688 208.527344 198.625 C 206.84375 199.699219 204.636719 199.207031 203.566406 197.617188 C 200.414062 192.839844 193.800781 192.132812 190.125 192.132812 C 184.339844 192.132812 179.625 194.03125 177.542969 197.246094 C 175.582031 200.28125 175.398438 204.046875 177.203125 206.773438 C 181.246094 213.050781 193.339844 212.40625 201.148438 216.480469 C 210.515625 221.378906 212.628906 231.667969 207.453125 239.722656 C 203.996094 245.019531 197.199219 248.113281 188.929688 248.113281 Z M 188.929688 248.113281 " fill-opacity="1" fill-rule="evenodd"/><path fill="#fc8c2e" d="M 189.574219 253.960938 C 187.613281 253.960938 186.023438 252.339844 186.023438 250.378906 L 186.023438 244.5 C 186.023438 242.507812 187.613281 240.917969 189.574219 240.917969 C 191.535156 240.917969 193.15625 242.507812 193.15625 244.5 L 193.15625 250.378906 C 193.15625 252.398438 191.535156 253.960938 189.574219 253.960938 Z M 189.574219 192.074219 C 187.613281 192.074219 186.023438 190.449219 186.023438 188.488281 L 186.023438 182.609375 C 186.023438 180.621094 187.613281 179.027344 189.574219 179.027344 C 191.535156 179.027344 193.15625 180.621094 193.15625 182.609375 L 193.15625 188.488281 C 193.15625 190.449219 191.535156 192.074219 189.574219 192.074219 Z M 189.574219 192.074219 " fill-opacity="1" fill-rule="evenodd"/><path fill="#f8b839" d="M 189.574219 173.117188 C 165.632812 173.117188 146.160156 192.59375 146.160156 216.539062 C 146.160156 233.351562 155.742188 247.960938 169.734375 255.15625 C 157.886719 247.410156 150.046875 233.996094 150.046875 218.804688 C 150.046875 194.859375 169.519531 175.382812 193.460938 175.382812 C 200.597656 175.382812 207.332031 177.128906 213.273438 180.191406 C 206.445312 175.71875 198.300781 173.117188 189.574219 173.117188 Z M 189.574219 173.117188 " fill-opacity="1" fill-rule="evenodd"/></svg>