<svg xmlns="http://www.w3.org/2000/svg" xmlns:xlink="http://www.w3.org/1999/xlink" width="500" zoomAndPan="magnify" viewBox="0 0 375 374.999991" height="500" preserveAspectRatio="xMidYMid meet" version="1.0"><defs><clipPath id="6c0de1ad36"><path d="M 119.53125 112.5 L 255.28125 112.5 L 255.28125 262.5 L 119.53125 262.5 Z M 119.53125 112.5 " clip-rule="nonzero"/></clipPath></defs><path fill="#68aa22" d="M 152.296875 213.28125 L 154.640625 225 L 121.871094 225 L 124.210938 213.28125 Z M 152.296875 213.28125 " fill-opacity="1" fill-rule="nonzero"/><path fill="#8cbf43" d="M 154.640625 225 L 152.296875 260.15625 L 124.210938 260.15625 L 121.871094 225 Z M 199.109375 152.34375 L 199.109375 133.96875 C 199.109375 129.539062 201.941406 125.625 206.128906 124.21875 L 173.363281 124.21875 L 173.363281 133.59375 L 179.402344 135.609375 C 184.175781 137.203125 187.40625 141.679688 187.40625 146.71875 L 187.40625 154.6875 C 187.40625 157.921875 186.09375 160.851562 183.988281 162.984375 C 181.859375 165.09375 178.933594 166.40625 175.703125 166.40625 L 203.789062 166.40625 C 201.214844 166.40625 199.109375 164.296875 199.109375 161.71875 Z M 199.109375 152.34375 " fill-opacity="1" fill-rule="nonzero"/><path fill="#4c9ac1" d="M 201.449219 213.28125 L 203.789062 225 L 171.023438 225 L 173.363281 213.28125 Z M 206.128906 114.84375 L 206.128906 124.21875 L 217.832031 124.21875 L 217.832031 114.84375 Z M 199.109375 138.28125 L 199.109375 152.34375 L 224.855469 152.34375 L 224.855469 138.28125 Z M 199.109375 138.28125 " fill-opacity="1" fill-rule="nonzero"/><path fill="#6ebed6" d="M 203.789062 225 L 201.449219 260.15625 L 173.363281 260.15625 L 171.023438 225 Z M 199.109375 152.34375 L 199.109375 161.71875 C 199.109375 164.296875 201.214844 166.40625 203.789062 166.40625 L 220.171875 166.40625 C 222.75 166.40625 224.855469 164.296875 224.855469 161.71875 L 224.855469 152.34375 Z M 222.910156 127.96875 C 221.671875 126.257812 219.9375 124.921875 217.832031 124.21875 L 206.128906 124.21875 C 201.941406 125.625 199.109375 129.539062 199.109375 133.96875 L 199.109375 138.28125 L 224.855469 138.28125 L 224.855469 133.96875 C 224.855469 131.765625 224.152344 129.65625 222.910156 127.96875 Z M 222.910156 127.96875 " fill-opacity="1" fill-rule="nonzero"/><path fill="#d74c4c" d="M 252.941406 225 L 250.601562 260.15625 L 222.515625 260.15625 L 220.171875 225 Z M 159.320312 128.90625 L 149.957031 128.90625 L 149.957031 154.6875 C 149.957031 161.15625 155.199219 166.40625 161.660156 166.40625 L 175.703125 166.40625 C 178.933594 166.40625 181.859375 165.09375 183.988281 162.984375 C 186.09375 160.851562 187.40625 157.921875 187.40625 154.6875 L 187.40625 146.71875 C 187.40625 141.679688 184.175781 137.203125 179.402344 135.609375 L 173.363281 133.59375 Z M 159.320312 128.90625 " fill-opacity="1" fill-rule="nonzero"/><path fill="#e47f7f" d="M 250.601562 213.28125 L 252.941406 225 L 220.171875 225 L 222.515625 213.28125 Z M 147.617188 117.1875 L 149.957031 128.90625 L 159.320312 128.90625 L 164 119.53125 Z M 147.617188 117.1875 " fill-opacity="1" fill-rule="nonzero"/><g clip-path="url(#6c0de1ad36)"><path fill="#000000" d="M 154.59375 212.820312 C 154.375 211.726562 153.414062 210.9375 152.296875 210.9375 L 124.210938 210.9375 C 123.097656 210.9375 122.136719 211.726562 121.917969 212.820312 L 119.53125 225 L 121.878906 260.3125 C 121.960938 261.542969 122.980469 262.5 124.214844 262.5 L 152.296875 262.5 C 153.53125 262.5 154.550781 261.542969 154.632812 260.3125 L 156.996094 224.84375 Z M 150.378906 215.625 L 151.785156 222.65625 L 124.726562 222.65625 L 126.132812 215.625 Z M 126.402344 257.8125 L 124.375 227.34375 L 152.136719 227.34375 L 150.109375 257.8125 Z M 203.742188 212.820312 C 203.523438 211.726562 202.566406 210.9375 201.449219 210.9375 L 173.363281 210.9375 C 172.246094 210.9375 171.285156 211.726562 171.066406 212.820312 L 168.667969 224.84375 L 171.027344 260.3125 C 171.109375 261.542969 172.132812 262.5 173.363281 262.5 L 201.449219 262.5 C 202.679688 262.5 203.703125 261.542969 203.785156 260.3125 L 206.144531 224.84375 Z M 199.53125 215.625 L 200.933594 222.65625 L 173.878906 222.65625 L 175.28125 215.625 Z M 175.550781 257.8125 L 173.523438 227.34375 L 201.289062 227.34375 L 199.257812 257.8125 Z M 255.28125 225 L 252.894531 212.820312 C 252.675781 211.726562 251.714844 210.9375 250.601562 210.9375 L 222.515625 210.9375 C 221.398438 210.9375 220.4375 211.726562 220.21875 212.820312 L 217.816406 224.84375 L 220.179688 260.3125 C 220.261719 261.542969 221.28125 262.5 222.515625 262.5 L 250.597656 262.5 C 251.832031 262.5 252.851562 261.542969 252.933594 260.3125 Z M 248.679688 215.625 L 250.085938 222.65625 L 223.027344 222.65625 L 224.433594 215.625 Z M 224.703125 257.8125 L 222.675781 227.34375 L 250.4375 227.34375 L 248.410156 257.8125 Z M 147.617188 129.136719 L 147.617188 154.6875 C 147.617188 162.441406 153.917969 168.75 161.660156 168.75 L 220.171875 168.75 C 224.046875 168.75 227.195312 165.597656 227.195312 161.71875 L 227.195312 133.96875 C 227.195312 131.304688 226.34375 128.683594 224.804688 126.59375 C 223.582031 124.902344 221.996094 123.578125 220.171875 122.671875 L 220.171875 114.84375 C 220.171875 113.550781 219.125 112.5 217.832031 112.5 L 206.128906 112.5 C 204.835938 112.5 203.789062 113.550781 203.789062 114.84375 L 203.789062 122.675781 C 199.535156 124.789062 196.769531 129.125 196.769531 133.96875 L 196.769531 161.71875 C 196.769531 162.542969 196.9375 163.324219 197.199219 164.0625 L 186.164062 164.0625 C 188.472656 161.464844 189.746094 158.171875 189.746094 154.6875 L 189.746094 146.71875 C 189.746094 140.660156 185.886719 135.304688 180.144531 133.386719 L 175.703125 131.902344 L 175.703125 126.5625 L 192.085938 126.5625 C 193.378906 126.5625 194.429688 125.511719 194.429688 124.21875 C 194.429688 122.925781 193.378906 121.875 192.085938 121.875 L 173.363281 121.875 C 172.070312 121.875 171.023438 122.925781 171.023438 124.21875 L 171.023438 130.339844 L 162.621094 127.539062 L 166.09375 120.578125 C 166.429688 119.90625 166.425781 119.109375 166.074219 118.445312 C 165.726562 117.777344 165.078125 117.316406 164.332031 117.210938 L 147.949219 114.867188 C 147.1875 114.761719 146.441406 115.023438 145.917969 115.578125 C 145.394531 116.128906 145.171875 116.902344 145.324219 117.648438 Z M 215.492188 117.1875 L 215.492188 121.875 L 208.472656 121.875 L 208.472656 117.1875 Z M 206.539062 126.5625 L 217.429688 126.5625 C 218.855469 127.113281 220.09375 128.070312 221.027344 129.359375 C 221.984375 130.660156 222.515625 132.300781 222.515625 133.96875 L 222.515625 135.9375 L 201.449219 135.9375 L 201.449219 133.96875 C 201.449219 130.675781 203.480469 127.742188 206.539062 126.5625 Z M 201.449219 161.71875 L 201.449219 140.625 L 222.515625 140.625 L 222.515625 150 L 208.472656 150 C 207.179688 150 206.128906 151.050781 206.128906 152.34375 C 206.128906 153.636719 207.179688 154.6875 208.472656 154.6875 L 222.515625 154.6875 L 222.515625 161.71875 C 222.515625 163.011719 221.464844 164.0625 220.171875 164.0625 L 203.789062 164.0625 C 202.5 164.0625 201.449219 163.011719 201.449219 161.71875 Z M 178.660156 137.832031 C 182.492188 139.109375 185.066406 142.683594 185.066406 146.71875 L 185.066406 154.6875 C 185.066406 157.183594 184.09375 159.546875 182.34375 161.316406 C 180.769531 162.875 178.746094 163.773438 176.585938 163.976562 L 167.996094 155.375 C 167.082031 154.457031 165.601562 154.457031 164.6875 155.375 C 163.773438 156.289062 163.773438 157.773438 164.6875 158.6875 L 170.054688 164.0625 L 161.660156 164.0625 C 156.5 164.0625 152.296875 159.855469 152.296875 154.6875 L 152.296875 131.25 L 158.9375 131.25 Z M 160.453125 121.390625 L 157.875 126.5625 L 151.875 126.5625 L 150.5625 119.976562 Z M 129.578125 198.53125 C 128.664062 197.617188 128.664062 196.132812 129.578125 195.21875 C 130.492188 194.300781 131.972656 194.300781 132.886719 195.21875 L 135.914062 198.25 L 135.914062 187.5 C 135.914062 186.207031 136.960938 185.15625 138.253906 185.15625 L 185.066406 185.15625 L 185.066406 175.78125 C 185.066406 174.488281 186.113281 173.4375 187.40625 173.4375 C 188.699219 173.4375 189.746094 174.488281 189.746094 175.78125 L 189.746094 185.15625 L 236.558594 185.15625 C 237.851562 185.15625 238.898438 186.207031 238.898438 187.5 L 238.898438 198.25 L 241.925781 195.21875 C 242.839844 194.300781 244.320312 194.300781 245.234375 195.21875 C 246.148438 196.132812 246.148438 197.617188 245.234375 198.53125 L 238.210938 205.5625 C 237.753906 206.019531 237.15625 206.25 236.558594 206.25 C 235.957031 206.25 235.359375 206.019531 234.902344 205.5625 L 227.878906 198.53125 C 226.964844 197.617188 226.964844 196.132812 227.878906 195.21875 C 228.796875 194.300781 230.277344 194.300781 231.191406 195.21875 L 234.214844 198.25 L 234.214844 189.84375 L 189.746094 189.84375 L 189.746094 198.25 L 192.773438 195.21875 C 193.6875 194.300781 195.167969 194.300781 196.082031 195.21875 C 196.996094 196.132812 196.996094 197.617188 196.082031 198.53125 L 189.0625 205.5625 C 188.605469 206.019531 188.003906 206.25 187.40625 206.25 C 186.808594 206.25 186.207031 206.019531 185.75 205.5625 L 178.730469 198.53125 C 177.816406 197.617188 177.816406 196.132812 178.730469 195.21875 C 179.644531 194.300781 181.125 194.300781 182.039062 195.21875 L 185.066406 198.25 L 185.066406 189.84375 L 140.597656 189.84375 L 140.597656 198.25 L 143.621094 195.21875 C 144.535156 194.300781 146.019531 194.300781 146.933594 195.21875 C 147.84375 196.132812 147.847656 197.617188 146.933594 198.53125 L 139.910156 205.5625 C 139.453125 206.019531 138.855469 206.25 138.253906 206.25 C 137.65625 206.25 137.058594 206.019531 136.601562 205.5625 Z M 189.746094 235.953125 L 189.746094 247.671875 C 189.746094 248.96875 188.699219 250.015625 187.40625 250.015625 C 186.113281 250.015625 185.066406 248.96875 185.066406 247.671875 L 185.066406 235.953125 C 185.066406 234.660156 186.113281 233.609375 187.40625 233.609375 C 188.699219 233.609375 189.746094 234.660156 189.746094 235.953125 Z M 144.589844 235.0625 C 145.503906 235.976562 145.503906 237.460938 144.589844 238.375 L 135.230469 247.75 C 134.773438 248.207031 133.210938 248.921875 131.917969 247.75 C 130.960938 246.878906 131.003906 245.351562 131.917969 244.4375 L 141.28125 235.0625 C 142.195312 234.144531 143.675781 234.144531 144.589844 235.0625 Z M 242.894531 244.4375 C 243.808594 245.351562 243.808594 246.835938 242.894531 247.75 C 242.015625 248.703125 240.039062 248.207031 239.582031 247.75 L 230.222656 238.375 C 229.308594 237.460938 229.308594 235.976562 230.222656 235.0625 C 231.136719 234.144531 232.617188 234.144531 233.53125 235.0625 Z M 242.894531 244.4375 " fill-opacity="1" fill-rule="nonzero"/></g></svg>